<?xml version="1.0" encoding="UTF-8"?>
<!DOCTYPE svg PUBLIC "-//W3C//DTD SVG 1.1//EN" "http://www.w3.org/Graphics/SVG/1.1/DTD/svg11.dtd">
<svg xmlns="http://www.w3.org/2000/svg" version="1.1" width="981px" height="981px" style="shape-rendering:geometricPrecision; text-rendering:geometricPrecision; image-rendering:optimizeQuality; fill-rule:evenodd; clip-rule:evenodd" xmlns:xlink="http://www.w3.org/1999/xlink">
<g><path style="opacity:1" fill="#020202" d="M 792.5,-0.5 C 847.5,-0.5 902.5,-0.5 957.5,-0.5C 964.182,1.17663 969.515,4.84329 973.5,10.5C 973.738,12.4044 974.738,13.7377 976.5,14.5C 978.025,17.0791 979.359,19.7458 980.5,22.5C 980.5,27.5 980.5,32.5 980.5,37.5C 976.829,50.6629 968.163,58.4963 954.5,61C 910.501,61.5 866.501,61.6667 822.5,61.5C 783.196,278.857 743.696,496.19 704,713.5C 700.43,724.069 693.263,730.903 682.5,734C 534.167,734.667 385.833,734.667 237.5,734C 233.965,733.337 230.965,731.837 228.5,729.5C 227.738,727.738 226.404,726.738 224.5,726.5C 214.081,716.158 211.748,704.158 217.5,690.5C 218.906,690.027 219.573,689.027 219.5,687.5C 224.251,678.945 231.585,674.112 241.5,673C 377.166,672.5 512.833,672.333 648.5,672.5C 655.448,632.427 662.781,592.427 670.5,552.5C 507.168,551.667 343.834,551.167 180.5,551C 176,550.559 172,549.059 168.5,546.5C 168.027,545.094 167.027,544.427 165.5,544.5C 164.833,544.5 164.5,544.167 164.5,543.5C 163.738,541.738 162.404,540.738 160.5,540.5C 159.833,539.5 159.167,538.5 158.5,537.5C 158.715,535.821 158.048,534.821 156.5,534.5C 106.576,415.236 56.7431,295.903 7,176.5C 3.76232,169.284 1.26232,161.951 -0.5,154.5C -0.5,153.833 -0.5,153.167 -0.5,152.5C -0.0936207,146.281 1.90638,140.615 5.5,135.5C 6.90632,135.027 7.57298,134.027 7.5,132.5C 7.83333,131.5 8.5,130.833 9.5,130.5C 11.4044,130.262 12.7377,129.262 13.5,127.5C 16.8237,124.436 20.8237,122.603 25.5,122C 266.5,121.5 507.5,121.333 748.5,121.5C 754.195,88.9849 760.195,56.6516 766.5,24.5C 767.924,22.4855 768.59,20.1522 768.5,17.5C 768.328,16.5084 768.662,15.8417 769.5,15.5C 770.906,15.0269 771.573,14.0269 771.5,12.5C 771.5,11.8333 771.833,11.5 772.5,11.5C 773.906,11.0269 774.573,10.0269 774.5,8.5C 776.404,8.26242 777.738,7.26242 778.5,5.5C 780.336,3.41203 782.669,2.0787 785.5,1.5C 788.152,1.59047 790.485,0.923808 792.5,-0.5 Z"/></g>
<g><path style="opacity:1" fill="#626262" d="M 788.5,-0.5 C 789.833,-0.5 791.167,-0.5 792.5,-0.5C 790.485,0.923808 788.152,1.59047 785.5,1.5C 786.5,0.833333 787.5,0.166667 788.5,-0.5 Z"/></g>
<g><path style="opacity:1" fill="#808080" d="M 778.5,5.5 C 777.738,7.26242 776.404,8.26242 774.5,8.5C 775.262,6.73758 776.596,5.73758 778.5,5.5 Z"/></g>
<g><path style="opacity:1" fill="#858585" d="M 774.5,8.5 C 774.573,10.0269 773.906,11.0269 772.5,11.5C 772.427,9.97306 773.094,8.97306 774.5,8.5 Z"/></g>
<g><path style="opacity:1" fill="#777777" d="M 973.5,10.5 C 975.262,11.2623 976.262,12.5956 976.5,14.5C 974.738,13.7377 973.738,12.4044 973.5,10.5 Z"/></g>
<g><path style="opacity:1" fill="#a2a2a2" d="M 771.5,12.5 C 771.573,14.0269 770.906,15.0269 769.5,15.5C 769.427,13.9731 770.094,12.9731 771.5,12.5 Z"/></g>
<g><path style="opacity:1" fill="#6b6b6b" d="M 768.5,17.5 C 768.59,20.1522 767.924,22.4855 766.5,24.5C 766.41,21.8478 767.076,19.5145 768.5,17.5 Z"/></g>
<g><path style="opacity:1" fill="#767676" d="M 13.5,127.5 C 12.7377,129.262 11.4044,130.262 9.5,130.5C 10.2623,128.738 11.5956,127.738 13.5,127.5 Z"/></g>
<g><path style="opacity:1" fill="#a2a2a2" d="M 7.5,132.5 C 7.57298,134.027 6.90632,135.027 5.5,135.5C 5.42702,133.973 6.09368,132.973 7.5,132.5 Z"/></g>
<g><path style="opacity:1" fill="#767676" d="M 156.5,534.5 C 158.048,534.821 158.715,535.821 158.5,537.5C 157.599,536.71 156.932,535.71 156.5,534.5 Z"/></g>
<g><path style="opacity:1" fill="#9b9b9b" d="M 160.5,540.5 C 162.404,540.738 163.738,541.738 164.5,543.5C 162.596,543.262 161.262,542.262 160.5,540.5 Z"/></g>
<g><path style="opacity:1" fill="#828282" d="M 165.5,544.5 C 167.027,544.427 168.027,545.094 168.5,546.5C 166.973,546.573 165.973,545.906 165.5,544.5 Z"/></g>
<g><path style="opacity:1" fill="#a8a8a8" d="M 219.5,687.5 C 219.573,689.027 218.906,690.027 217.5,690.5C 217.427,688.973 218.094,687.973 219.5,687.5 Z"/></g>
<g><path style="opacity:1" fill="#848484" d="M 224.5,726.5 C 226.404,726.738 227.738,727.738 228.5,729.5C 226.596,729.262 225.262,728.262 224.5,726.5 Z"/></g>
<g><path style="opacity:1" fill="#030303" d="M 383.5,807.5 C 383.821,809.048 384.821,809.715 386.5,809.5C 387.71,809.932 388.71,810.599 389.5,811.5C 390.035,813.446 391.368,814.446 393.5,814.5C 398.46,817.792 402.793,821.792 406.5,826.5C 406.427,828.027 407.094,829.027 408.5,829.5C 409.167,829.5 409.5,829.833 409.5,830.5C 409.738,832.404 410.738,833.738 412.5,834.5C 412.427,836.027 413.094,837.027 414.5,837.5C 414.427,839.027 415.094,840.027 416.5,840.5C 420.836,846.847 423.836,853.847 425.5,861.5C 425.41,864.152 426.076,866.485 427.5,868.5C 434.595,910.396 420.595,943.229 385.5,967C 371.438,975.093 356.438,979.593 340.5,980.5C 338.5,980.5 336.5,980.5 334.5,980.5C 327.134,979.932 319.801,978.598 312.5,976.5C 310.898,974.926 308.898,974.259 306.5,974.5C 297.565,971.703 289.565,967.369 282.5,961.5C 282.027,960.094 281.027,959.427 279.5,959.5C 278.167,958.833 277.167,957.833 276.5,956.5C 275.415,954.413 273.749,953.08 271.5,952.5C 271.5,950.5 270.5,949.5 268.5,949.5C 264.676,945.186 261.343,940.519 258.5,935.5C 258.715,933.821 258.048,932.821 256.5,932.5C 245.468,911.951 242.468,890.284 247.5,867.5C 248.924,865.485 249.59,863.152 249.5,860.5C 250.873,854.365 253.207,848.699 256.5,843.5C 257.906,843.027 258.573,842.027 258.5,840.5C 258.328,839.508 258.662,838.842 259.5,838.5C 260.906,838.027 261.573,837.027 261.5,835.5C 262.124,833.246 263.457,831.579 265.5,830.5C 266.906,830.027 267.573,829.027 267.5,827.5C 269.167,825.167 271.167,823.167 273.5,821.5C 276.427,820.243 278.761,818.243 280.5,815.5C 283.803,811.844 287.803,809.178 292.5,807.5C 294.027,807.573 295.027,806.906 295.5,805.5C 300.399,802.531 305.733,800.531 311.5,799.5C 314.152,799.59 316.485,798.924 318.5,797.5C 341.386,792.817 363.053,796.151 383.5,807.5 Z"/></g>
<g><path style="opacity:1" fill="#030303" d="M 628.5,807.5 C 628.821,809.048 629.821,809.715 631.5,809.5C 639.321,813.753 645.988,819.42 651.5,826.5C 651.427,828.027 652.094,829.027 653.5,829.5C 655.587,830.585 656.92,832.251 657.5,834.5C 657.427,836.027 658.094,837.027 659.5,837.5C 659.427,839.027 660.094,840.027 661.5,840.5C 665.836,846.847 668.836,853.847 670.5,861.5C 670.41,864.152 671.076,866.485 672.5,868.5C 679.584,910.437 665.584,943.27 630.5,967C 616.438,975.093 601.438,979.593 585.5,980.5C 583.5,980.5 581.5,980.5 579.5,980.5C 572.134,979.932 564.801,978.598 557.5,976.5C 555.898,974.926 553.898,974.259 551.5,974.5C 543.735,972.119 536.735,968.452 530.5,963.5C 530.027,962.094 529.027,961.427 527.5,961.5C 527.027,960.094 526.027,959.427 524.5,959.5C 523.167,958.833 522.167,957.833 521.5,956.5C 520.738,954.738 519.404,953.738 517.5,953.5C 517.5,951.5 516.5,950.5 514.5,950.5C 490.38,922.135 484.213,890.135 496,854.5C 497.337,850.493 499.17,846.827 501.5,843.5C 502.906,843.027 503.573,842.027 503.5,840.5C 505.062,836.608 507.395,833.275 510.5,830.5C 511.906,830.027 512.573,829.027 512.5,827.5C 514.167,825.167 516.167,823.167 518.5,821.5C 521.427,820.243 523.761,818.243 525.5,815.5C 528.803,811.844 532.803,809.178 537.5,807.5C 539.027,807.573 540.027,806.906 540.5,805.5C 545.399,802.531 550.733,800.531 556.5,799.5C 559.152,799.59 561.485,798.924 563.5,797.5C 586.386,792.817 608.053,796.151 628.5,807.5 Z"/></g>
<g><path style="opacity:1" fill="#646464" d="M 318.5,797.5 C 316.485,798.924 314.152,799.59 311.5,799.5C 313.515,798.076 315.848,797.41 318.5,797.5 Z"/></g>
<g><path style="opacity:1" fill="#626262" d="M 563.5,797.5 C 561.485,798.924 559.152,799.59 556.5,799.5C 558.515,798.076 560.848,797.41 563.5,797.5 Z"/></g>
<g><path style="opacity:1" fill="#7c7c7c" d="M 295.5,805.5 C 295.027,806.906 294.027,807.573 292.5,807.5C 292.973,806.094 293.973,805.427 295.5,805.5 Z"/></g>
<g><path style="opacity:1" fill="#797979" d="M 540.5,805.5 C 540.027,806.906 539.027,807.573 537.5,807.5C 537.973,806.094 538.973,805.427 540.5,805.5 Z"/></g>
<g><path style="opacity:1" fill="#7e7e7e" d="M 383.5,807.5 C 384.71,807.932 385.71,808.599 386.5,809.5C 384.821,809.715 383.821,809.048 383.5,807.5 Z"/></g>
<g><path style="opacity:1" fill="#7a7a7a" d="M 628.5,807.5 C 629.71,807.932 630.71,808.599 631.5,809.5C 629.821,809.715 628.821,809.048 628.5,807.5 Z"/></g>
<g><path style="opacity:1" fill="#7d7d7d" d="M 389.5,811.5 C 391.23,812.026 392.564,813.026 393.5,814.5C 391.368,814.446 390.035,813.446 389.5,811.5 Z"/></g>
<g><path style="opacity:1" fill="#585858" d="M 280.5,815.5 C 278.761,818.243 276.427,820.243 273.5,821.5C 275.239,818.757 277.573,816.757 280.5,815.5 Z"/></g>
<g><path style="opacity:1" fill="#595959" d="M 525.5,815.5 C 523.761,818.243 521.427,820.243 518.5,821.5C 520.239,818.757 522.573,816.757 525.5,815.5 Z"/></g>
<g><path style="opacity:1" fill="#8e8e8e" d="M 406.5,826.5 C 407.906,826.973 408.573,827.973 408.5,829.5C 407.094,829.027 406.427,828.027 406.5,826.5 Z"/></g>
<g><path style="opacity:1" fill="#888888" d="M 651.5,826.5 C 652.906,826.973 653.573,827.973 653.5,829.5C 652.094,829.027 651.427,828.027 651.5,826.5 Z"/></g>
<g><path style="opacity:1" fill="#858585" d="M 267.5,827.5 C 267.573,829.027 266.906,830.027 265.5,830.5C 265.427,828.973 266.094,827.973 267.5,827.5 Z"/></g>
<g><path style="opacity:1" fill="#898989" d="M 512.5,827.5 C 512.573,829.027 511.906,830.027 510.5,830.5C 510.427,828.973 511.094,827.973 512.5,827.5 Z"/></g>
<g><path style="opacity:1" fill="#777777" d="M 409.5,830.5 C 411.262,831.262 412.262,832.596 412.5,834.5C 410.738,833.738 409.738,832.404 409.5,830.5 Z"/></g>
<g><path style="opacity:1" fill="#868686" d="M 412.5,834.5 C 413.906,834.973 414.573,835.973 414.5,837.5C 413.094,837.027 412.427,836.027 412.5,834.5 Z"/></g>
<g><path style="opacity:1" fill="#818181" d="M 657.5,834.5 C 658.906,834.973 659.573,835.973 659.5,837.5C 658.094,837.027 657.427,836.027 657.5,834.5 Z"/></g>
<g><path style="opacity:1" fill="#a1a1a1" d="M 261.5,835.5 C 261.573,837.027 260.906,838.027 259.5,838.5C 259.427,836.973 260.094,835.973 261.5,835.5 Z"/></g>
<g><path style="opacity:1" fill="#939393" d="M 414.5,837.5 C 415.906,837.973 416.573,838.973 416.5,840.5C 415.094,840.027 414.427,839.027 414.5,837.5 Z"/></g>
<g><path style="opacity:1" fill="#8e8e8e" d="M 659.5,837.5 C 660.906,837.973 661.573,838.973 661.5,840.5C 660.094,840.027 659.427,839.027 659.5,837.5 Z"/></g>
<g><path style="opacity:1" fill="#969696" d="M 258.5,840.5 C 258.573,842.027 257.906,843.027 256.5,843.5C 256.427,841.973 257.094,840.973 258.5,840.5 Z"/></g>
<g><path style="opacity:1" fill="#a3a3a3" d="M 503.5,840.5 C 503.573,842.027 502.906,843.027 501.5,843.5C 501.427,841.973 502.094,840.973 503.5,840.5 Z"/></g>
<g><path style="opacity:1" fill="#7f7f7f" d="M 249.5,860.5 C 249.59,863.152 248.924,865.485 247.5,867.5C 247.41,864.848 248.076,862.515 249.5,860.5 Z"/></g>
<g><path style="opacity:1" fill="#777777" d="M 425.5,861.5 C 426.924,863.515 427.59,865.848 427.5,868.5C 426.076,866.485 425.41,864.152 425.5,861.5 Z"/></g>
<g><path style="opacity:1" fill="#767676" d="M 670.5,861.5 C 671.924,863.515 672.59,865.848 672.5,868.5C 671.076,866.485 670.41,864.152 670.5,861.5 Z"/></g>
<g><path style="opacity:1" fill="#787878" d="M 256.5,932.5 C 258.048,932.821 258.715,933.821 258.5,935.5C 257.599,934.71 256.932,933.71 256.5,932.5 Z"/></g>
<g><path style="opacity:1" fill="#aaaaaa" d="M 268.5,949.5 C 270.5,949.5 271.5,950.5 271.5,952.5C 270.167,951.833 269.167,950.833 268.5,949.5 Z"/></g>
<g><path style="opacity:1" fill="#aaaaaa" d="M 514.5,950.5 C 516.5,950.5 517.5,951.5 517.5,953.5C 516.167,952.833 515.167,951.833 514.5,950.5 Z"/></g>
<g><path style="opacity:1" fill="#9b9b9b" d="M 271.5,952.5 C 273.749,953.08 275.415,954.413 276.5,956.5C 274.251,955.92 272.585,954.587 271.5,952.5 Z"/></g>
<g><path style="opacity:1" fill="#a5a5a5" d="M 517.5,953.5 C 519.404,953.738 520.738,954.738 521.5,956.5C 519.596,956.262 518.262,955.262 517.5,953.5 Z"/></g>
<g><path style="opacity:1" fill="#9b9b9b" d="M 524.5,959.5 C 526.027,959.427 527.027,960.094 527.5,961.5C 525.973,961.573 524.973,960.906 524.5,959.5 Z"/></g>
<g><path style="opacity:1" fill="#969696" d="M 279.5,959.5 C 281.027,959.427 282.027,960.094 282.5,961.5C 280.973,961.573 279.973,960.906 279.5,959.5 Z"/></g>
<g><path style="opacity:1" fill="#787878" d="M 527.5,961.5 C 529.027,961.427 530.027,962.094 530.5,963.5C 528.973,963.573 527.973,962.906 527.5,961.5 Z"/></g>
<g><path style="opacity:1" fill="#808080" d="M 306.5,974.5 C 308.898,974.259 310.898,974.926 312.5,976.5C 310.214,976.405 308.214,975.738 306.5,974.5 Z"/></g>
<g><path style="opacity:1" fill="#808080" d="M 551.5,974.5 C 553.898,974.259 555.898,974.926 557.5,976.5C 555.214,976.405 553.214,975.738 551.5,974.5 Z"/></g>
</svg>
